<svg width="32" height="32" viewBox="0 0 32 32" fill="none" xmlns="http://www.w3.org/2000/svg">
<path d="M16.0003 29.3332C8.63627 29.3332 2.66693 23.3638 2.66693 15.9998C2.66693 8.63584 8.63627 2.6665 16.0003 2.6665C23.3643 2.6665 29.3336 8.63584 29.3336 15.9998C29.3336 23.3638 23.3643 29.3332 16.0003 29.3332ZM9.35093 24.3412C11.2383 25.8501 13.5838 26.6704 16.0003 26.6665C18.6269 26.6665 21.0309 25.7172 22.8896 24.1438C22.0212 23.2528 20.983 22.545 19.8363 22.0622C18.6896 21.5795 17.4578 21.3316 16.2136 21.3332C14.9237 21.3317 13.6476 21.5983 12.4662 22.1161C11.2848 22.6339 10.224 23.3916 9.35093 24.3412ZM7.48827 22.4265C8.60887 21.2373 9.96116 20.2901 11.4618 19.6435C12.9624 18.9968 14.5796 18.6643 16.2136 18.6665C17.7891 18.6645 19.3496 18.9737 20.8053 19.5763C22.261 20.179 23.5833 21.0634 24.6963 22.1785C25.8377 20.572 26.5118 18.6807 26.6437 16.7144C26.7756 14.7481 26.3602 12.7837 25.4436 11.0391C24.527 9.29454 23.145 7.838 21.4509 6.8311C19.7568 5.82419 17.8169 5.30629 15.8464 5.33484C13.8759 5.36339 11.9518 5.93728 10.2876 6.99285C8.62344 8.04841 7.28421 9.54437 6.41852 11.3148C5.55283 13.0852 5.19452 15.0608 5.38335 17.0224C5.57218 18.9841 6.30076 20.8537 7.48827 22.4265ZM16.0003 17.3332C14.5858 17.3332 13.2292 16.7713 12.229 15.7711C11.2288 14.7709 10.6669 13.4143 10.6669 11.9998C10.6669 10.5854 11.2288 9.2288 12.229 8.2286C13.2292 7.22841 14.5858 6.6665 16.0003 6.6665C17.4148 6.6665 18.7713 7.22841 19.7715 8.2286C20.7717 9.2288 21.3336 10.5854 21.3336 11.9998C21.3336 13.4143 20.7717 14.7709 19.7715 15.7711C18.7713 16.7713 17.4148 17.3332 16.0003 17.3332ZM16.0003 14.6665C16.7075 14.6665 17.3858 14.3856 17.8859 13.8855C18.386 13.3854 18.6669 12.7071 18.6669 11.9998C18.6669 11.2926 18.386 10.6143 17.8859 10.1142C17.3858 9.61412 16.7075 9.33317 16.0003 9.33317C15.293 9.33317 14.6147 9.61412 14.1146 10.1142C13.6146 10.6143 13.3336 11.2926 13.3336 11.9998C13.3336 12.7071 13.6146 13.3854 14.1146 13.8855C14.6147 14.3856 15.293 14.6665 16.0003 14.6665Z" fill="black"/>
</svg>
