<svg width="463" height="40" viewBox="0 0 463 40" fill="none" xmlns="http://www.w3.org/2000/svg">
<path d="M18.7966 39.2133C6.70658 39.17 0.813242 35.27 1.02991 26.1267H10.8232C10.9966 28.9 13.3366 30.6333 18.7966 30.6767C23.7366 30.72 26.1632 29.2033 26.1632 27.1233C26.1632 25.52 25.0366 24.3067 21.2232 23.7L16.6299 22.9633C9.73991 21.7933 1.93991 20.6233 1.93991 11.7833C1.93991 4.67666 7.74657 0.386665 18.8832 0.386665C28.9799 0.386665 36.0432 3.42 35.9132 13.3867H26.2066C25.7299 10.6567 23.5199 8.92333 18.6232 8.92333C14.3332 8.92333 12.3832 10.2667 12.3832 12.3033C12.3832 13.7333 13.3799 15.0333 16.4999 15.5533L20.3566 16.2467C27.5066 17.46 36.9532 17.98 36.9532 27.5567C36.9532 35.2267 30.8866 39.2567 18.7966 39.2133ZM38.6415 38V1.6H58.7482C68.5848 1.6 74.3048 6.10667 74.3048 15.51C74.3048 24.9567 68.5848 29.42 58.7915 29.42H49.5181V38H38.6415ZM49.5181 20.3633H57.8815C61.2181 20.3633 63.3415 18.76 63.3415 15.51C63.3415 12.3033 61.2181 10.6567 57.8815 10.6567H49.5181V20.3633ZM101.521 38L99.7011 32.7567H83.3211L81.5011 38H70.2778L83.8845 1.6H99.1378L112.788 38H101.521ZM86.1378 24.6533H96.8845L92.4645 11.8267H90.5578L86.1378 24.6533ZM150.691 38H139.988L134.701 28.12H124.735V38H113.858V1.6H134.095C144.105 1.6 149.608 6.02 149.608 15.2067C149.608 20.19 147.311 23.7433 144.018 25.8667L150.691 38ZM124.735 10.6567V19.93H133.401C136.868 19.93 138.731 18.2833 138.731 15.2933C138.731 12.3033 136.868 10.6567 133.401 10.6567H124.735ZM188.748 1.6V10.7H175.488V38H164.611V10.7H151.351V1.6H188.748ZM213.533 38L211.713 32.7567H195.333L193.513 38H182.29L195.897 1.6H211.15L224.8 38H213.533ZM198.15 24.6533H208.897L204.477 11.8267H202.57L198.15 24.6533ZM225.87 38V1.6H238.393L252.087 22.8767H253.083V1.6H263.7V38H251.437L237.44 16.7233H236.487V38H225.87ZM276.356 38V1.6H296.463C306.299 1.6 312.019 6.10667 312.019 15.51C312.019 24.9567 306.299 29.42 296.506 29.42H287.233V38H276.356ZM287.233 20.3633H295.596C298.933 20.3633 301.056 18.76 301.056 15.51C301.056 12.3033 298.933 10.6567 295.596 10.6567H287.233V20.3633ZM339.235 38L337.415 32.7567H321.035L319.215 38H307.992L321.599 1.6H336.852L350.502 38H339.235ZM323.852 24.6533H334.599L330.179 11.8267H328.272L323.852 24.6533ZM388.406 38H377.702L372.416 28.12H362.449V38H351.572V1.6H371.809C381.819 1.6 387.322 6.02 387.322 15.2067C387.322 20.19 385.026 23.7433 381.732 25.8667L388.406 38ZM362.449 10.6567V19.93H371.116C374.582 19.93 376.446 18.2833 376.446 15.2933C376.446 12.3033 374.582 10.6567 371.116 10.6567H362.449ZM426.462 1.6V10.7H413.202V38H402.325V10.7H389.065V1.6H426.462ZM444.552 39.2133C432.462 39.17 426.569 35.27 426.785 26.1267H436.579C436.752 28.9 439.092 30.6333 444.552 30.6767C449.492 30.72 451.919 29.2033 451.919 27.1233C451.919 25.52 450.792 24.3067 446.979 23.7L442.385 22.9633C435.495 21.7933 427.695 20.6233 427.695 11.7833C427.695 4.67666 433.502 0.386665 444.639 0.386665C454.735 0.386665 461.799 3.42 461.669 13.3867H451.962C451.485 10.6567 449.275 8.92333 444.379 8.92333C440.089 8.92333 438.139 10.2667 438.139 12.3033C438.139 13.7333 439.135 15.0333 442.255 15.5533L446.112 16.2467C453.262 17.46 462.709 17.98 462.709 27.5567C462.709 35.2267 456.642 39.2567 444.552 39.2133Z" fill="black"/>
</svg>
